<mxfile host="65bd71144e">
    <diagram id="DwdKK6togWyJAFF92k-o" name="Page-1">
        <mxGraphModel dx="2779" dy="1287" grid="1" gridSize="10" guides="1" tooltips="1" connect="1" arrows="1" fold="1" page="1" pageScale="1" pageWidth="827" pageHeight="1169" math="0" shadow="0">
            <root>
                <mxCell id="0"/>
                <mxCell id="1" parent="0"/>
                <mxCell id="6" style="edgeStyle=none;html=1;exitX=0.5;exitY=1;exitDx=0;exitDy=0;entryX=0.5;entryY=0;entryDx=0;entryDy=0;fontSize=18;fontColor=#000000;" edge="1" parent="1" source="2" target="3">
                    <mxGeometry relative="1" as="geometry"/>
                </mxCell>
                <mxCell id="7" style="edgeStyle=none;html=1;exitX=0.5;exitY=1;exitDx=0;exitDy=0;entryX=0;entryY=0;entryDx=0;entryDy=0;fontSize=18;fontColor=#000000;" edge="1" parent="1" source="2" target="5">
                    <mxGeometry relative="1" as="geometry"/>
                </mxCell>
                <mxCell id="8" style="edgeStyle=none;html=1;exitX=0.5;exitY=1;exitDx=0;exitDy=0;entryX=1;entryY=0;entryDx=0;entryDy=0;fontSize=18;fontColor=#000000;" edge="1" parent="1" source="2" target="4">
                    <mxGeometry relative="1" as="geometry"/>
                </mxCell>
                <mxCell id="2" value="&lt;b&gt;Landing Page&lt;/b&gt;" style="rounded=0;whiteSpace=wrap;html=1;fillColor=#ffcccc;strokeColor=#36393d;fontSize=18;fontColor=#000000;" vertex="1" parent="1">
                    <mxGeometry x="320" y="120" width="160" height="40" as="geometry"/>
                </mxCell>
                <mxCell id="14" style="edgeStyle=none;html=1;exitX=0.5;exitY=1;exitDx=0;exitDy=0;fontSize=18;fontColor=#000000;" edge="1" parent="1" source="3" target="11">
                    <mxGeometry relative="1" as="geometry"/>
                </mxCell>
                <mxCell id="3" value="&lt;b&gt;Navbar&lt;/b&gt;" style="rounded=0;whiteSpace=wrap;html=1;fillColor=#ffcccc;strokeColor=#36393d;fontSize=18;fontColor=#000000;" vertex="1" parent="1">
                    <mxGeometry x="320" y="240" width="160" height="40" as="geometry"/>
                </mxCell>
                <mxCell id="22" style="edgeStyle=none;html=1;exitX=0.75;exitY=1;exitDx=0;exitDy=0;entryX=0;entryY=0;entryDx=0;entryDy=0;fontSize=18;fontColor=#000000;" edge="1" parent="1" source="4" target="15">
                    <mxGeometry relative="1" as="geometry"/>
                </mxCell>
                <mxCell id="23" style="edgeStyle=none;html=1;exitX=0.75;exitY=1;exitDx=0;exitDy=0;entryX=0.412;entryY=-0.084;entryDx=0;entryDy=0;entryPerimeter=0;fontSize=18;fontColor=#000000;" edge="1" parent="1" source="4" target="16">
                    <mxGeometry relative="1" as="geometry"/>
                </mxCell>
                <mxCell id="24" style="edgeStyle=none;html=1;exitX=0.75;exitY=1;exitDx=0;exitDy=0;entryX=0.667;entryY=0;entryDx=0;entryDy=0;entryPerimeter=0;fontSize=18;fontColor=#000000;" edge="1" parent="1" source="4" target="17">
                    <mxGeometry relative="1" as="geometry"/>
                </mxCell>
                <mxCell id="25" style="edgeStyle=none;html=1;exitX=0.25;exitY=1;exitDx=0;exitDy=0;entryX=0.75;entryY=0;entryDx=0;entryDy=0;fontSize=18;fontColor=#000000;dashed=1;" edge="1" parent="1" source="4" target="18">
                    <mxGeometry relative="1" as="geometry"/>
                </mxCell>
                <mxCell id="26" style="edgeStyle=none;html=1;exitX=0.25;exitY=1;exitDx=0;exitDy=0;entryX=0.637;entryY=-0.034;entryDx=0;entryDy=0;entryPerimeter=0;fontSize=18;fontColor=#000000;dashed=1;" edge="1" parent="1" source="4" target="19">
                    <mxGeometry relative="1" as="geometry"/>
                </mxCell>
                <mxCell id="27" style="edgeStyle=none;html=1;exitX=0.25;exitY=1;exitDx=0;exitDy=0;entryX=0.687;entryY=-0.084;entryDx=0;entryDy=0;entryPerimeter=0;fontSize=18;fontColor=#000000;dashed=1;" edge="1" parent="1" source="4" target="20">
                    <mxGeometry relative="1" as="geometry"/>
                </mxCell>
                <mxCell id="28" style="edgeStyle=none;html=1;exitX=0.25;exitY=1;exitDx=0;exitDy=0;fontSize=18;fontColor=#000000;entryX=0.5;entryY=0;entryDx=0;entryDy=0;dashed=1;" edge="1" parent="1" source="4" target="21">
                    <mxGeometry relative="1" as="geometry">
                        <mxPoint x="-40" y="300" as="targetPoint"/>
                    </mxGeometry>
                </mxCell>
                <mxCell id="4" value="&lt;b&gt;Filters Container&lt;/b&gt;" style="rounded=0;whiteSpace=wrap;html=1;fillColor=#ffcccc;strokeColor=#36393d;fontSize=18;fontColor=#000000;" vertex="1" parent="1">
                    <mxGeometry y="240" width="160" height="40" as="geometry"/>
                </mxCell>
                <mxCell id="12" style="edgeStyle=none;html=1;entryX=0.5;entryY=0;entryDx=0;entryDy=0;fontSize=18;fontColor=#000000;exitX=0.5;exitY=1;exitDx=0;exitDy=0;" edge="1" parent="1" source="5" target="9">
                    <mxGeometry relative="1" as="geometry"/>
                </mxCell>
                <mxCell id="13" style="edgeStyle=none;html=1;exitX=0.5;exitY=1;exitDx=0;exitDy=0;entryX=0.5;entryY=0;entryDx=0;entryDy=0;fontSize=18;fontColor=#000000;" edge="1" parent="1" source="5" target="10">
                    <mxGeometry relative="1" as="geometry"/>
                </mxCell>
                <mxCell id="5" value="&lt;b&gt;Main&lt;/b&gt;" style="rounded=0;whiteSpace=wrap;html=1;fillColor=#ffcccc;strokeColor=#36393d;fontSize=18;fontColor=#000000;" vertex="1" parent="1">
                    <mxGeometry x="640" y="240" width="160" height="40" as="geometry"/>
                </mxCell>
                <mxCell id="9" value="&lt;b&gt;GraphCards&lt;/b&gt;" style="rounded=0;whiteSpace=wrap;html=1;fillColor=#ffcccc;strokeColor=#36393d;fontSize=18;fontColor=#000000;" vertex="1" parent="1">
                    <mxGeometry x="760" y="360" width="160" height="40" as="geometry"/>
                </mxCell>
                <mxCell id="10" value="&lt;b&gt;NewsCards&lt;br&gt;&lt;/b&gt;" style="rounded=0;whiteSpace=wrap;html=1;fillColor=#ffcccc;strokeColor=#36393d;fontSize=18;fontColor=#000000;" vertex="1" parent="1">
                    <mxGeometry x="520" y="360" width="160" height="40" as="geometry"/>
                </mxCell>
                <mxCell id="11" value="&lt;b&gt;AutoComplete&lt;/b&gt;" style="rounded=0;whiteSpace=wrap;html=1;fillColor=#ffcccc;strokeColor=#36393d;fontSize=18;fontColor=#000000;" vertex="1" parent="1">
                    <mxGeometry x="320" y="360" width="160" height="40" as="geometry"/>
                </mxCell>
                <mxCell id="15" value="&lt;b style=&quot;font-size: 17px;&quot;&gt;&lt;font style=&quot;font-size: 17px;&quot;&gt;Sources&lt;br style=&quot;font-size: 17px;&quot;&gt;DropDown&lt;br style=&quot;font-size: 17px;&quot;&gt;&lt;/font&gt;&lt;/b&gt;" style="rounded=0;whiteSpace=wrap;html=1;fillColor=#ffcccc;strokeColor=#36393d;fontSize=17;fontColor=#000000;" vertex="1" parent="1">
                    <mxGeometry x="320" y="440" width="120" height="40" as="geometry"/>
                </mxCell>
                <mxCell id="16" value="&lt;b style=&quot;font-size: 17px;&quot;&gt;&lt;font style=&quot;font-size: 17px;&quot;&gt;Category&lt;br style=&quot;font-size: 17px;&quot;&gt;DropDown&lt;br style=&quot;font-size: 17px;&quot;&gt;&lt;/font&gt;&lt;/b&gt;" style="rounded=0;whiteSpace=wrap;html=1;fillColor=#ffcccc;strokeColor=#36393d;fontSize=17;fontColor=#000000;" vertex="1" parent="1">
                    <mxGeometry x="160" y="440" width="120" height="40" as="geometry"/>
                </mxCell>
                <mxCell id="17" value="&lt;b style=&quot;font-size: 17px;&quot;&gt;&lt;font style=&quot;font-size: 17px;&quot;&gt;Country&lt;br style=&quot;font-size: 17px;&quot;&gt;DropDown&lt;br style=&quot;font-size: 17px;&quot;&gt;&lt;/font&gt;&lt;/b&gt;" style="rounded=0;whiteSpace=wrap;html=1;fillColor=#ffcccc;strokeColor=#36393d;fontSize=17;fontColor=#000000;" vertex="1" parent="1">
                    <mxGeometry y="440" width="120" height="40" as="geometry"/>
                </mxCell>
                <mxCell id="18" value="&lt;b style=&quot;font-size: 17px;&quot;&gt;&lt;font style=&quot;font-size: 17px;&quot;&gt;Language&lt;br style=&quot;font-size: 17px;&quot;&gt;DropDown&lt;br style=&quot;font-size: 17px;&quot;&gt;&lt;/font&gt;&lt;/b&gt;" style="rounded=0;whiteSpace=wrap;html=1;fillColor=#ffcc99;strokeColor=#36393d;fontSize=17;fontColor=#000000;" vertex="1" parent="1">
                    <mxGeometry x="-160" y="440" width="120" height="40" as="geometry"/>
                </mxCell>
                <mxCell id="19" value="&lt;b style=&quot;font-size: 17px;&quot;&gt;&lt;font style=&quot;font-size: 17px;&quot;&gt;Sources&lt;br style=&quot;font-size: 17px;&quot;&gt;DropDown&lt;br style=&quot;font-size: 17px;&quot;&gt;&lt;/font&gt;&lt;/b&gt;" style="rounded=0;whiteSpace=wrap;html=1;fillColor=#ffcc99;strokeColor=#36393d;fontSize=17;fontColor=#000000;" vertex="1" parent="1">
                    <mxGeometry x="-320" y="440" width="120" height="40" as="geometry"/>
                </mxCell>
                <mxCell id="20" value="&lt;b style=&quot;font-size: 17px;&quot;&gt;&lt;font style=&quot;font-size: 17px;&quot;&gt;Dates&lt;br style=&quot;font-size: 17px;&quot;&gt;DropDown&lt;br style=&quot;font-size: 17px;&quot;&gt;&lt;/font&gt;&lt;/b&gt;" style="rounded=0;whiteSpace=wrap;html=1;fillColor=#ffcc99;strokeColor=#36393d;fontSize=17;fontColor=#000000;" vertex="1" parent="1">
                    <mxGeometry x="-480" y="440" width="120" height="40" as="geometry"/>
                </mxCell>
                <mxCell id="21" value="&lt;b style=&quot;font-size: 17px;&quot;&gt;&lt;font style=&quot;font-size: 17px;&quot;&gt;SortBy&lt;br style=&quot;font-size: 17px;&quot;&gt;DropDown&lt;br style=&quot;font-size: 17px;&quot;&gt;&lt;/font&gt;&lt;/b&gt;" style="rounded=0;whiteSpace=wrap;html=1;fillColor=#ffcc99;strokeColor=#36393d;fontSize=17;fontColor=#000000;" vertex="1" parent="1">
                    <mxGeometry x="-640" y="440" width="120" height="40" as="geometry"/>
                </mxCell>
                <mxCell id="30" value="&lt;b&gt;&lt;u&gt;Server:&lt;br&gt;&lt;/u&gt;&lt;/b&gt;&lt;br&gt;&lt;b&gt;Landing Page:&lt;/b&gt;&lt;br&gt;&lt;div style=&quot;text-align: left;&quot;&gt;&lt;ul&gt;&lt;li&gt;Fetch Top Headlines in Israel&lt;/li&gt;&lt;/ul&gt;&lt;/div&gt;&lt;br&gt;&lt;b&gt;Top Headlines Page - Filterd:&lt;/b&gt;&lt;br&gt;&lt;div style=&quot;&quot;&gt;&lt;ul&gt;&lt;li&gt;Fetch Top Headlines in chosen Country&amp;nbsp; &amp;nbsp; &amp;nbsp;&amp;nbsp;&lt;/li&gt;&lt;li&gt;Fetch Top Headlines with chosen Category&lt;/li&gt;&lt;li&gt;Fetch Top Headlines from chosen Source&amp;nbsp;&amp;nbsp;&lt;/li&gt;&lt;/ul&gt;&lt;div style=&quot;&quot;&gt;&lt;b&gt;Everything Page - Filterd:&lt;/b&gt;&lt;/div&gt;&lt;div style=&quot;text-align: left;&quot;&gt;&lt;ul&gt;&lt;li&gt;Fetch all News between two chosen Dates&lt;/li&gt;&lt;li&gt;Fetch all Neas from chosen Source&lt;/li&gt;&lt;li&gt;Fetch all News in chosen Language&lt;/li&gt;&lt;li&gt;Fetch all News sort by chosen Sort&lt;/li&gt;&lt;/ul&gt;&lt;/div&gt;&lt;/div&gt;" style="text;html=1;align=center;verticalAlign=middle;resizable=0;points=[];autosize=1;strokeColor=#36393d;fillColor=#cce5ff;fontSize=18;fontColor=#000000;" vertex="1" parent="1">
                    <mxGeometry x="800" y="440" width="410" height="470" as="geometry"/>
                </mxCell>
            </root>
        </mxGraphModel>
    </diagram>
</mxfile>